<svg
                width="13"
                height="16"
                viewBox="0 0 13 16"
                fill="none"
                xmlns="http://www.w3.org/2000/svg"
              >
                <path
                  d="M1 0H4C4.55 0 5 0.45 5 1V15C5 15.55 4.55 16 4 16H1C0.45 16 0 15.55 0 15V1C0 0.45 0.45 0 1 0Z"
                  fill="white"
                />
                <path
                  d="M9 0H12C12.55 0 13 0.45 13 1V15C13 15.55 12.55 16 12 16H9C8.45 16 8 15.55 8 15V1C8 0.45 8.45 0 9 0Z"
                  fill="white"
                />
              </svg>